# xmcd
#
# Track frame offsets: 
#        150
#        4183
#        27044
#        57117
#        64798
#        91262
#        120884
#        160390
#        179875
#        198636
#        231919
#        239450
#        267773
#        295481
#        298935
#        317480
#        337625
#
# Disc length: 4718 seconds
#
# Revision: 0
# Processed by: cddbd v1.5.2PL0 Copyright (c) Steve Scherf et al.
# Submitted via: ExactAudioCopy v0.99pb1
#
DISCID=f2126c11
DTITLE=Taj Mahal - Bonn 1995
DYEAR=1900
DGENRE=
TTITLE0=Intro
TTITLE1=Blues With A Feelin'
TTITLE2=Big Legged Mamas Are Back In Style Again
TTITLE3=Blue Light Boogie Intro
TTITLE4=Blue Light Boogie
TTITLE5=Dust My Broom
TTITLE6=Walking Blues
TTITLE7=Stagger Lee
TTITLE8=Take This Hammer
TTITLE9=Sittin' On Top Of The World
TTITLE10=Statesboro Blues Intro
TTITLE11=Statesboro Blues
TTITLE12=The Moanin' Blues
TTITLE13=[Encore]
TTITLE14=Ringin' On That Bell
TTITLE15=? Beatclub 1970
TTITLE16=Creole Woman Beatclub 1970
EXTD=
EXTT0=
EXTT1=
EXTT2=
EXTT3=
EXTT4=
EXTT5=
EXTT6=
EXTT7=
EXTT8=
EXTT9=
EXTT10=
EXTT11=
EXTT12=
EXTT13=
EXTT14=
EXTT15=
EXTT16=
PLAYORDER=
